<svg id="user_14_" data-name="user (14)" xmlns="http://www.w3.org/2000/svg" width="321.121" height="236.384" viewBox="0 0 321.121 236.384">
  <g id="Group_5" data-name="Group 5" transform="translate(0 0)">
    <path id="Path_5" data-name="Path 5" d="M415.6,281.411a267.677,267.677,0,0,0-45.219-29.425V226.493a21.207,21.207,0,0,0,6.619-15.4V178.26a36.135,36.135,0,0,0-36.109-36.11H333.81a36.136,36.136,0,0,0-36.11,36.11v32.833a21.208,21.208,0,0,0,6.619,15.4V249.3a6.488,6.488,0,1,0,12.976,0V223.413a6.505,6.505,0,0,0-2.884-5.374,8.274,8.274,0,0,1-3.735-6.947V178.26a23.172,23.172,0,0,1,23.134-23.134h7.078a23.172,23.172,0,0,1,23.134,23.134v32.833a8.273,8.273,0,0,1-3.735,6.947,6.346,6.346,0,0,0-2.884,5.374v31.719a8.024,8.024,0,0,0,4.457,7.143,256.693,256.693,0,0,1,45.481,29.163,9.4,9.4,0,0,1,3.408,7.274v22.544a6.488,6.488,0,0,0,12.976,0V298.713A22.276,22.276,0,0,0,415.6,281.411Z" transform="translate(-102.603 -91.361)" fill="#88a53b"/>
    <path id="Path_6" data-name="Path 6" d="M114.424,64.65h-9.175a44.89,44.89,0,0,0-44.826,44.826v42.532a25.633,25.633,0,0,0,8.585,19.136v35c-9.24,4.719-35.127,18.546-59.243,38.338A27.066,27.066,0,0,0,0,265.383v29.163a6.461,6.461,0,0,0,6.488,6.488H213.316a6.461,6.461,0,0,0,6.488-6.488V265.383a26.87,26.87,0,0,0-9.9-20.906c-24.117-19.791-50-33.685-59.243-38.338v-35a25.528,25.528,0,0,0,8.585-19.136v-42.6A44.834,44.834,0,0,0,114.424,64.65Zm27.983,151.778c5.374,2.621,33.423,16.777,59.243,38.01a14.029,14.029,0,0,1,5.112,10.879v22.675H12.976v-22.61A14.041,14.041,0,0,1,18.088,254.5c25.886-21.233,53.87-35.389,59.243-38.01a8.424,8.424,0,0,0,4.718-7.536V167.933a6.505,6.505,0,0,0-2.884-5.374,12.689,12.689,0,0,1-5.7-10.551v-42.6a31.884,31.884,0,0,1,31.85-31.85h9.175a31.884,31.884,0,0,1,31.85,31.85v42.532a12.531,12.531,0,0,1-5.7,10.551,6.346,6.346,0,0,0-2.883,5.374v41.025A8.18,8.18,0,0,0,142.407,216.428Z" transform="translate(0 -64.65)" fill="#3e510b"/>
  </g>
</svg>
