<svg xmlns="http://www.w3.org/2000/svg" width="320.872" height="280.157" viewBox="0 0 320.872 280.157">
  <g id="Group_439" data-name="Group 439" transform="translate(-173.76 -307.922)">
    <g id="shop" transform="translate(173.76 307.922)">
      <g id="Group_4" data-name="Group 4" transform="translate(0)">
        <path id="Path_3" data-name="Path 3" d="M313.437,263.75h-43.6A21.658,21.658,0,0,0,248.2,285.386v33.438a21.658,21.658,0,0,0,21.636,21.636h43.6a21.658,21.658,0,0,0,21.636-21.636V285.386A21.658,21.658,0,0,0,313.437,263.75Zm5.9,55.074a5.918,5.918,0,0,1-5.9,5.9h-43.6a5.918,5.918,0,0,1-5.9-5.9V285.386a5.918,5.918,0,0,1,5.9-5.9h43.6a5.918,5.918,0,0,1,5.9,5.9Z" transform="translate(-85.469 -111.182)" fill="#608400"/>
        <path id="Path_4" data-name="Path 4" d="M320.872,122.84a7.3,7.3,0,0,0-1.049-3.868L272.092,35.049a7.91,7.91,0,0,0-6.819-4H55.533a7.775,7.775,0,0,0-6.819,4L1.049,118.972A7.954,7.954,0,0,0,0,122.84a46.025,46.025,0,0,0,27.537,42.092V303.339a7.891,7.891,0,0,0,7.868,7.868h250a7.891,7.891,0,0,0,7.868-7.868V165.916a3.463,3.463,0,0,0-.066-.852A46.153,46.153,0,0,0,320.872,122.84ZM60.123,46.851H260.684l37.306,65.63H22.882Zm168.238,81.3a30.239,30.239,0,0,1-59.532,0Zm-76.251,0a30.278,30.278,0,0,1-59.6,0Zm-135.849,0h59.6a30.278,30.278,0,0,1-59.6,0Zm115.918,167.32H86.938V210.565A11.206,11.206,0,0,1,98.15,199.354h22.882a11.206,11.206,0,0,1,11.212,11.211v84.906Zm145.356,0H147.913V210.565a26.988,26.988,0,0,0-26.947-26.947H98.084a26.988,26.988,0,0,0-26.947,26.947v84.971H43.272V168.8c.918.066,1.836.066,2.754.066a45.967,45.967,0,0,0,38.158-20.325,45.982,45.982,0,0,0,76.317,0,45.859,45.859,0,0,0,76.186,0,45.967,45.967,0,0,0,38.158,20.325c.918,0,1.77-.066,2.688-.066v126.67Zm-2.688-142.34a30.223,30.223,0,0,1-29.766-24.914h59.6A30.407,30.407,0,0,1,274.846,153.131Z" transform="translate(0 -31.05)" fill="#88a53b"/>
      </g>
    </g>
  </g>
</svg>
